# Blender v2.75 (sub 0) OBJ File: ''
# www.blender.org
mtllib bound.mtl
o Cube
v 1.000000 -1.000000 -1.000000
v 1.000000 -1.000000 1.000000
v -1.000000 -1.000000 1.000000
v -1.000000 -1.000000 -1.000000
v 1.000000 1.000000 -0.999999
v 0.999999 1.000000 1.000001
v -1.000000 1.000000 1.000000
v -1.000000 1.000000 -1.000000
vt -0.992207 0.997403
vt 0.002597 0.997403
vt 0.002597 1.992208
vt -0.992208 1.992208
vt 0.002597 0.002598
vt -0.992208 0.002598
vt 0.997403 0.002597
vt 0.002597 -0.992208
vt 0.997402 -0.992207
vt -0.992208 -0.992207
vt 1.992208 0.002597
vt 1.992208 -0.992208
vt 0.997402 0.997402
vn 0.000000 -1.000000 0.000000
vn 0.000000 1.000000 0.000000
vn 1.000000 0.000000 0.000000
vn -0.000000 -0.000000 1.000000
vn -1.000000 -0.000000 -0.000000
vn 0.000000 0.000000 -1.000000
usemtl Material
s off
f 1/1/1 2/2/1 3/3/1 4/4/1
f 5/5/2 8/2/2 7/1/2 6/6/2
f 1/7/3 5/5/3 6/8/3 2/9/3
f 2/6/4 6/10/4 7/8/4 3/5/4
f 3/11/5 7/7/5 8/9/5 4/12/5
f 5/5/6 1/7/6 4/13/6 8/2/6
