# Blender v2.75 (sub 0) OBJ File: ''
# www.blender.org
mtllib road.mtl
o Mesh1_Model
v -2.282871 0.039148 -3.543662
v -2.282871 0.039145 3.256338
v -2.282871 -0.120853 3.256338
v -2.282871 -0.120850 -3.543662
v -2.025804 0.039148 -3.543662
v -2.025804 0.039145 3.256338
v -2.005418 -0.120850 -3.543662
v -2.005418 -0.104850 -3.543662
v -2.005418 0.020612 -3.543662
v -2.005592 0.023032 -3.543662
v -2.006111 0.025410 -3.543662
v -2.006969 0.027705 -3.543662
v -2.008148 0.029880 -3.543662
v -2.009629 0.031895 -3.543662
v -2.011388 0.033719 -3.543662
v -2.013394 0.035318 -3.543662
v -2.015611 0.036664 -3.543662
v -2.018001 0.037736 -3.543662
v -2.020527 0.038516 -3.543662
v -2.023145 0.038988 -3.543662
v -2.005418 0.020611 3.256338
v -2.005418 -0.104853 3.256338
v -2.005418 -0.120853 3.256338
v -2.023145 0.038987 3.256338
v -2.020527 0.038515 3.256338
v -2.018001 0.037735 3.256338
v -2.015611 0.036661 3.256338
v -2.013394 0.035315 3.256338
v -2.011388 0.033716 3.256338
v -2.009629 0.031894 3.256338
v -2.008148 0.029877 3.256338
v -2.006969 0.027704 3.256338
v -2.006111 0.025407 3.256338
v -2.005592 0.023029 3.256338
v 1.833665 -0.104850 -3.543662
v 1.834302 -0.104853 3.256338
v 1.833665 -0.120850 -3.543662
v 1.833665 0.001716 -3.543662
v 2.117130 -0.120850 -3.543662
v 2.117130 0.023148 -3.543662
v 1.857229 0.023148 -3.543662
v 1.854151 0.022965 -3.543662
v 1.851131 0.022418 -3.543662
v 1.848215 0.021517 -3.543662
v 1.845457 0.020276 -3.543662
v 1.842878 0.018719 -3.543662
v 1.840558 0.016871 -3.543662
v 1.838539 0.014763 -3.543662
v 1.836823 0.012432 -3.543662
v 1.835464 0.009917 -3.543662
v 1.834464 0.007263 -3.543662
v 1.833865 0.004512 -3.543662
v 1.834302 0.001713 3.256338
v 2.115912 -0.120853 3.256338
v 2.115912 0.023145 3.256338
v 2.117130 0.023145 3.256338
v 1.834302 -0.120853 3.256338
v 1.833665 0.001713 3.256338
v 1.833865 0.004511 3.256338
v 1.834302 0.006564 3.256338
v 1.834464 0.007260 3.256338
v 1.835464 0.009914 3.256338
v 1.836823 0.012429 3.256338
v 1.838539 0.014760 3.256338
v 1.840558 0.016868 3.256338
v 1.842878 0.018717 3.256338
v 1.845457 0.020275 3.256338
v 1.848215 0.021514 3.256338
v 1.851131 0.022415 3.256338
v 1.854151 0.022962 3.256338
v 1.857229 0.023145 3.256338
vt 0.851178 0.000000
vt 0.851178 0.999999
vt 0.818800 0.999999
vt 0.818799 0.000000
vt 0.770781 0.999999
vt 0.770781 0.000000
vt 0.930509 0.643309
vt 0.930509 0.602743
vt 0.933797 0.602743
vt 0.959576 0.602743
vt 0.960074 0.602768
vt 0.960562 0.602844
vt 0.961034 0.602970
vt 0.961481 0.603142
vt 0.961895 0.603359
vt 0.962269 0.603616
vt 0.962598 0.603909
vt 0.962875 0.604233
vt 0.963095 0.604583
vt 0.963255 0.604952
vt 0.963352 0.605335
vt 0.963385 0.605724
vt 0.963385 0.643309
vt 0.967194 0.602743
vt 0.992973 0.602743
vt 0.996261 0.602743
vt 0.996261 0.643309
vt 0.963515 0.604952
vt 0.963675 0.604583
vt 0.963895 0.604233
vt 0.964172 0.603909
vt 0.964501 0.603616
vt 0.964875 0.603359
vt 0.965289 0.603142
vt 0.965736 0.602970
vt 0.966208 0.602844
vt 0.966697 0.602768
vt 0.883554 0.999999
vt 0.883554 0.000000
vt 0.908944 0.000000
vt 0.908944 0.999999
vt 0.883058 0.999999
vt 0.883058 0.000000
vt 0.882560 0.999999
vt 0.882560 0.000000
vt 0.882068 0.999999
vt 0.882068 0.000000
vt 0.881590 0.999999
vt 0.881590 0.000000
vt 0.881134 0.999999
vt 0.881134 0.000000
vt 0.880708 0.999999
vt 0.880708 0.000000
vt 0.880320 0.999999
vt 0.880320 0.000000
vt 0.768463 0.000000
vt 0.768876 0.000000
vt 0.768877 1.000000
vt 0.768463 1.000000
vt 0.769323 0.000000
vt 0.769323 1.000000
vt 0.769795 0.000000
vt 0.769795 0.999999
vt 0.770284 0.000000
vt 0.770284 0.999999
vt 0.717234 0.999999
vt 0.000120 0.999999
vt 0.000000 0.000000
vt 0.717234 0.000000
vt 0.933797 0.041445
vt 0.930509 0.041445
vt 0.955694 0.041445
vt 0.930509 0.000000
vt 0.960097 0.000000
vt 0.960097 0.037999
vt 0.960060 0.038449
vt 0.959947 0.038891
vt 0.959762 0.039317
vt 0.959507 0.039721
vt 0.959187 0.040098
vt 0.958807 0.040437
vt 0.958374 0.040732
vt 0.957895 0.040983
vt 0.957379 0.041182
vt 0.956833 0.041328
vt 0.956268 0.041415
vt 0.930509 0.999999
vt 0.996261 0.000178
vt 0.966673 0.000178
vt 0.966673 0.000000
vt 0.996261 0.041351
vt 0.992973 0.041351
vt 0.971076 0.041445
vt 0.970502 0.041415
vt 0.970080 0.041351
vt 0.969937 0.041328
vt 0.969391 0.041182
vt 0.968875 0.040983
vt 0.968396 0.040732
vt 0.967962 0.040437
vt 0.967583 0.040098
vt 0.967263 0.039721
vt 0.967008 0.039317
vt 0.966823 0.038891
vt 0.966710 0.038449
vt 0.966673 0.037999
vt 0.996261 0.000000
vt 0.996833 0.000000
vt 0.996833 0.999999
vt 0.996261 0.999999
vt 0.997409 0.000000
vt 0.997409 0.999999
vt 0.997263 0.999999
vt 0.997979 0.000000
vt 0.997979 0.999999
vt 0.998531 0.000000
vt 0.998532 0.999999
vt 0.999059 0.000000
vt 0.999059 0.999999
vt 0.999551 0.000000
vt 0.999551 0.999999
vt 1.000000 0.000000
vt 1.000000 0.999999
vt 0.767981 1.000000
vt 0.767981 0.000000
vt 0.767466 1.000000
vt 0.767466 0.000000
vt 0.766921 1.000000
vt 0.766921 0.000000
vt 0.766357 1.000000
vt 0.766357 0.000000
vt 0.765782 1.000000
vt 0.765782 0.000000
vt 0.717461 0.000000
vn 1.000000 0.000000 0.000000
vn 0.000000 -1.000000 -0.000000
vn -0.000000 0.000000 1.000000
vn -0.000000 0.000000 -1.000000
vn -1.000000 0.000000 0.000000
vn -0.997400 -0.071800 -0.000000
vn -0.989700 -0.142900 -0.000000
vn -0.959300 -0.282400 -0.000000
vn -0.910100 -0.414400 -0.000000
vn -0.844300 -0.535900 -0.000000
vn -0.764500 -0.644600 -0.000000
vn -0.672900 -0.739700 -0.000000
vn -0.572300 -0.820000 -0.000000
vn -0.464900 -0.885400 0.000000
vn -0.465200 -0.885200 -0.000000
vn -0.352800 -0.935700 -0.000000
vn -0.236600 -0.971600 -0.000000
vn -0.118800 -0.992900 -0.000000
vn -0.059700 -0.998200 -0.000000
vn 1.000000 0.000000 -0.000100
vn -1.000000 0.000000 -0.000200
vn 0.997500 -0.071300 -0.000000
vn 0.989700 -0.143200 0.000000
vn 0.959200 -0.282700 0.000000
vn 0.976900 -0.213600 0.000000
vn 0.910100 -0.414400 -0.000000
vn 0.844300 -0.535800 -0.000000
vn 0.764500 -0.644600 0.000000
vn 0.673000 -0.739600 -0.000000
vn 0.572400 -0.820000 -0.000000
vn 0.465100 -0.885300 -0.000000
vn 0.352600 -0.935800 0.000000
vn 0.237200 -0.971500 -0.000000
vn 0.119100 -0.992900 -0.000000
vn 0.059500 -0.998200 -0.000000
usemtl FrontColor
s 1
f 1/1/1 2/2/1 3/3/1 4/4/1
f 1/3/2 5/5/2 6/6/2 2/4/2
f 4/7/3 7/8/3 8/9/3 9/10/3 10/11/3 11/12/3 12/13/3 13/14/3 14/15/3 15/16/3 16/17/3 17/18/3 18/19/3 19/20/3 20/21/3 5/22/3 1/23/3
f 21/24/4 22/25/4 23/26/4 3/27/4 2/23/4 6/22/4 24/21/4 25/28/4 26/29/4 27/30/4 28/31/4 29/32/4 30/33/4 31/34/4 32/35/4 33/36/4 34/37/4
f 21/38/5 9/39/5 8/40/5 22/41/5
f 21/38/6 34/42/7 10/43/7 9/39/6
f 34/42/7 33/44/8 11/45/8 10/43/7
f 33/44/8 32/46/9 12/47/9 11/45/8
f 32/46/9 31/48/10 13/49/10 12/47/9
f 31/48/10 30/50/11 14/51/11 13/49/10
f 30/50/11 29/52/12 15/53/12 14/51/11
f 29/52/12 28/54/13 16/55/13 15/53/12
f 28/56/13 27/57/14 17/58/15 16/59/13
f 27/57/14 26/60/16 18/61/16 17/58/15
f 26/60/16 25/62/17 19/63/17 18/61/16
f 25/62/17 24/64/18 20/65/18 19/63/17
f 24/64/18 6/6/19 5/5/19 20/65/18
f 8/66/2 35/67/2 36/68/2 22/69/2
f 35/70/3 8/9/3 7/8/3 37/71/3
f 38/72/3 35/70/3 37/71/3 39/73/3 40/74/3 41/75/3 42/76/3 43/77/3 44/78/3 45/79/3 46/80/3 47/81/3 48/82/3 49/83/3 50/84/3 51/85/3 52/86/3
f 36/73/20 35/87/20 38/41/20 53/40/20
f 54/54/21 55/2/21 40/1/21 39/55/21
f 54/88/4 55/89/4 56/90/4
f 54/88/4 57/91/4 36/92/4 58/93/4 59/94/4 60/95/4 61/96/4 62/97/4 63/98/4 64/99/4 65/100/4 66/101/4 67/102/4 68/103/4 69/104/4 70/105/4 71/106/4 55/89/4
f 22/25/4 36/92/4 57/91/4 23/26/4
f 38/107/22 52/108/23 59/109/23 58/110/22
f 52/108/23 51/111/24 61/112/24 60/113/25 59/109/23
f 51/111/24 50/114/26 62/115/26 61/112/24
f 50/114/26 49/116/27 63/117/27 62/115/26
f 49/116/27 48/118/28 64/119/28 63/117/27
f 48/118/28 47/120/29 65/121/29 64/119/28
f 47/120/29 46/122/30 66/123/30 65/121/29
f 46/59/30 45/124/31 67/125/31 66/56/30
f 45/124/31 44/126/32 68/127/32 67/125/31
f 44/126/32 43/128/33 69/129/33 68/127/32
f 43/128/33 42/130/34 70/131/34 69/129/33
f 42/130/34 41/132/35 71/133/35 70/131/34
f 41/132/2 40/66/2 55/134/2 71/133/2
f 56/69/2 55/134/2 40/66/2
