# Blender v2.75 (sub 0) OBJ File: ''
# www.blender.org
o Plane.074
v 1.593626 0.023807 2.999999
v 3.000000 0.023807 2.999999
v 3.000000 0.023808 -3.000001
v 1.593626 0.023808 -3.000001
v -1.593626 0.023807 2.999999
v -1.593626 0.023808 -3.000001
v -3.000000 0.023808 -3.000001
v -3.000000 0.023807 2.999999
v 3.000000 -0.036193 2.999999
v 3.000000 -0.036192 -3.000001
v -3.000000 -0.036193 2.999999
v -3.000000 -0.036192 -3.000001
v 0.000000 -0.036193 2.999999
v 1.500000 -0.036193 2.999999
v 1.500000 -0.036192 -3.000001
v 0.000000 -0.036192 -3.000001
v -1.500000 -0.036192 -3.000001
v -1.500000 -0.036193 2.999999
v 1.511610 0.023807 2.999999
v 1.511610 0.023808 -3.000001
v 1.500000 0.019060 -3.000001
v 1.500000 0.019059 2.999999
v -1.511610 0.023807 2.999999
v -1.500000 0.019059 2.999999
v -1.500000 0.019060 -3.000001
v -1.511610 0.023808 -3.000001
vt 0.746211 -4.436556
vt 1.100350 -4.436556
vt 1.100350 0.997361
vt 0.746211 0.997361
vt -0.101643 -4.428149
vt -0.101643 0.999645
vt 0.253419 0.999645
vt 0.253419 -4.428149
vt 0.000000 0.000000
vt 0.499766 1.989973
vt 0.253381 1.989972
vt 0.253381 -0.660529
vt 0.499766 -0.660528
vt 0.500095 -0.664150
vt 0.500095 1.986350
vt 0.746480 1.986351
vt 0.746480 -0.664150
vt 0.817191 -4.471152
vt 0.817191 1.059329
vt 0.765724 1.059329
vt 0.765724 -4.471152
vt -1.868691 -0.020601
vt -1.868691 1.004788
vt 4.110485 1.004788
vt 4.110485 -0.020601
vt 0.749112 -1.472907
vt 0.749111 4.379645
vt 0.799304 4.379645
vt 0.799305 -1.472907
vt 0.765033 -4.441667
vt 0.815101 -4.441667
vt 0.815101 1.013321
vt 0.765033 1.013321
vt 0.738049 -8.708772
vt 0.765116 -8.708772
vt 0.765115 1.877691
vt 0.738049 1.877691
vt 0.803101 -4.415776
vt 0.803102 0.953836
vt 0.742988 0.953836
vt 0.742988 -4.415776
vn 0.000000 1.000000 0.000000
vn 1.000000 0.000000 0.000000
vn -1.000000 0.000000 0.000000
vn -0.378500 0.925600 0.000000
vn 0.378500 0.925600 0.000000
s 1
f 1/1/1 2/2/1 3/3/1 4/4/1
f 5/5/1 6/6/1 7/7/1 8/8/1
f 9/9/2 10/9/2 3/9/2 2/9/2
f 11/9/3 8/9/3 7/9/3 12/9/3
f 13/10/1 14/11/1 15/12/1 16/13/1
f 13/14/1 16/15/1 17/16/1 18/17/1
f 19/18/4 20/19/4 21/20/4 22/21/4
f 23/22/5 24/23/5 25/24/5 26/25/5
f 15/26/3 14/27/3 22/28/3 21/29/3
f 19/30/1 1/31/1 4/32/1 20/33/1
f 17/34/2 25/35/2 24/36/2 18/37/2
f 23/38/1 26/39/1 6/40/1 5/41/1
