# Blender v2.75 (sub 0) OBJ File: ''
# www.blender.org
o Plane.008_Plane.004
v 1.593462 0.025950 -0.214443
v 2.999689 0.025950 -0.214443
v 2.999689 0.025952 -6.214159
v 1.593462 0.025952 -6.214159
v 1.614821 0.025950 0.029826
v 2.999685 0.025950 -0.214378
v 1.678271 0.025950 0.266673
v 2.999691 0.025950 -0.214313
v 1.781881 0.025950 0.488904
v 2.999710 0.025950 -0.214250
v 1.922506 0.025950 0.689766
v 2.999738 0.025950 -0.214193
v 2.095871 0.025950 0.863155
v 2.999776 0.025950 -0.214139
v 2.296710 0.025950 1.003803
v 2.999823 0.025950 -0.214095
v 2.518920 0.025950 1.107439
v 2.999877 0.025950 -0.214059
v 2.755749 0.025950 1.170911
v 2.999937 0.025950 -0.214033
v 3.000001 0.025950 1.192291
v 3.000000 0.025950 -0.214017
v -1.593458 0.025950 -0.214443
v -1.593458 0.025952 -6.214159
v -2.999685 0.025952 -6.214159
v -2.999685 0.025950 -0.214443
v -2.999681 0.025950 -0.214378
v -1.614818 0.025950 0.029826
v -2.999687 0.025950 -0.214313
v -1.678267 0.025950 0.266673
v -2.999706 0.025950 -0.214250
v -1.781876 0.025950 0.488904
v -2.999734 0.025950 -0.214193
v -1.922502 0.025950 0.689766
v -2.999773 0.025950 -0.214139
v -2.095868 0.025950 0.863155
v -2.999820 0.025950 -0.214095
v -2.296706 0.025950 1.003803
v -2.999874 0.025950 -0.214059
v -2.518917 0.025950 1.107439
v -2.999933 0.025950 -0.214033
v -2.755745 0.025950 1.170911
v -2.999996 0.025950 -0.214017
v -2.999998 0.025950 1.192291
v 0.000002 -0.034050 -0.214443
v -0.045566 -0.034050 0.306542
v 0.045569 -0.034050 0.306542
v -0.180905 -0.034050 0.811700
v 0.180908 -0.034050 0.811700
v -0.401901 -0.034050 1.285679
v 0.401905 -0.034050 1.285679
v -0.701842 -0.034050 1.714080
v 0.701846 -0.034050 1.714080
v -1.071612 -0.034050 2.083886
v 1.071616 -0.034050 2.083886
v -1.499977 -0.034050 2.383859
v 1.499982 -0.034050 2.383859
v -1.973923 -0.034050 2.604886
v 1.973926 -0.034050 2.604886
v -2.479044 -0.034050 2.740252
v 2.479049 -0.034050 2.740252
v -2.999998 -0.034050 2.785841
v 3.000002 -0.034050 2.785841
v 2.999689 -0.034050 -0.214443
v 2.999689 -0.034048 -6.214159
v 2.999685 -0.034050 -0.214378
v 2.999691 -0.034050 -0.214313
v 2.999710 -0.034050 -0.214250
v 2.999738 -0.034050 -0.214193
v 2.999776 -0.034050 -0.214139
v 2.999823 -0.034050 -0.214095
v 2.999877 -0.034050 -0.214059
v 2.999937 -0.034050 -0.214033
v 3.000000 -0.034050 -0.214017
v -2.999685 -0.034050 -0.214443
v -2.999685 -0.034048 -6.214159
v -2.999681 -0.034050 -0.214378
v -2.999687 -0.034050 -0.214313
v -2.999706 -0.034050 -0.214250
v -2.999734 -0.034050 -0.214193
v -2.999773 -0.034050 -0.214139
v -2.999820 -0.034050 -0.214095
v -2.999874 -0.034050 -0.214059
v -2.999933 -0.034050 -0.214033
v -2.999996 -0.034050 -0.214017
v 1.499845 -0.034050 -0.214443
v 1.499845 -0.034048 -6.214159
v 0.000002 -0.034048 -6.214159
v 1.522627 -0.034050 0.046083
v 1.590299 -0.034050 0.298693
v 1.700807 -0.034050 0.535715
v 1.850791 -0.034050 0.749944
v 2.035696 -0.034050 0.934873
v 2.249902 -0.034050 1.084883
v 2.486902 -0.034050 1.195414
v 2.739492 -0.034050 1.263111
v 3.000001 -0.034050 1.285913
v -1.499841 -0.034048 -6.214159
v -1.499841 -0.034050 -0.214443
v -1.522622 -0.034050 0.046083
v -1.590296 -0.034050 0.298693
v -1.700804 -0.034050 0.535715
v -1.850788 -0.034050 0.749944
v -2.035693 -0.034050 0.934873
v -2.249898 -0.034050 1.084883
v -2.486898 -0.034050 1.195414
v -2.739489 -0.034050 1.263111
v -2.999998 -0.034050 1.285913
v 1.511454 0.025950 -0.214443
v 1.511454 0.025952 -6.214159
v 1.499845 0.021204 -6.214159
v 1.499845 0.021203 -0.214443
v 1.522627 0.021203 0.046083
v 1.534060 0.025950 0.044067
v 1.590299 0.021203 0.298693
v 1.601208 0.025950 0.294723
v 1.700807 0.021203 0.535715
v 1.710861 0.025950 0.529910
v 1.850791 0.021203 0.749944
v 1.859684 0.025950 0.742481
v 2.035696 0.021203 0.934873
v 2.043158 0.025950 0.925980
v 2.249902 0.021203 1.084883
v 2.255707 0.025950 1.074828
v 2.486902 0.021203 1.195414
v 2.490872 0.025950 1.184505
v 2.739492 0.021203 1.263111
v 2.741508 0.025950 1.251677
v 3.000001 0.021203 1.285913
v 3.000000 0.025950 1.274303
v -1.511450 0.025950 -0.214443
v -1.499841 0.021203 -0.214443
v -1.499841 0.021204 -6.214159
v -1.511450 0.025952 -6.214159
v -1.534056 0.025950 0.044067
v -1.522622 0.021203 0.046083
v -1.601205 0.025950 0.294723
v -1.590296 0.021203 0.298693
v -1.710856 0.025950 0.529910
v -1.700804 0.021203 0.535715
v -1.859681 0.025950 0.742481
v -1.850788 0.021203 0.749944
v -2.043154 0.025950 0.925980
v -2.035693 0.021203 0.934873
v -2.255702 0.025950 1.074828
v -2.249898 0.021203 1.084883
v -2.490869 0.025950 1.184505
v -2.486898 0.021203 1.195414
v -2.741504 0.025950 1.251677
v -2.739489 0.021203 1.263111
v -2.999998 0.025950 1.274303
v -2.999998 0.021203 1.285913
vt 1.098350 1.003860
vt 0.746408 1.003860
vt 0.746408 -6.540079
vt 1.098350 -6.540079
vt 0.745205 -0.108012
vt 1.120262 -0.108012
vt 1.114565 0.215082
vt 0.745206 -0.107926
vt 1.097642 0.528362
vt 0.745204 -0.107840
vt 1.070008 0.822307
vt 1.032502 1.087987
vt 0.745192 -0.107680
vt 0.986263 1.317329
vt 0.745181 -0.107610
vt 0.932697 1.503366
vt 0.873432 1.640446
vt 0.745155 -0.107503
vt 0.810267 1.724399
vt 0.745139 -0.107467
vt 0.745122 1.752679
vt 0.745122 -0.107447
vt 0.746895 -6.532134
vt 0.746895 1.001547
vt 1.097602 1.001547
vt 1.097602 -6.532134
vt 0.745863 -0.117700
vt 0.745864 -0.117610
vt 1.102482 0.215304
vt 1.107983 -0.117699
vt 0.745862 -0.117522
vt 1.086143 0.538191
vt 0.745857 -0.117438
vt 1.059462 0.841151
vt 1.023250 1.114979
vt 0.745840 -0.117286
vt 0.978606 1.351355
vt 0.745828 -0.117224
vt 0.926888 1.543097
vt 0.869666 1.684381
vt 0.745799 -0.117138
vt 0.808680 1.770909
vt 0.745782 1.800056
vt 0.500000 0.795970
vt 0.496983 0.693183
vt 0.503017 0.693183
vt 0.488023 0.593518
vt 0.511977 0.593518
vt 0.473393 0.500004
vt 0.526607 0.500004
vt 0.453535 0.415483
vt 0.546465 0.415483
vt 0.429055 0.342522
vt 0.570945 0.342522
vt 0.400695 0.283339
vt 0.599305 0.283339
vt 0.369318 0.239731
vt 0.630682 0.239731
vt 0.335877 0.213024
vt 0.664123 0.213024
vt 0.301388 0.204030
vt 0.698612 0.204030
vt 0.000000 0.000000
vt 0.499922 -0.973561
vt 0.745531 -0.973561
vt 0.745531 2.160676
vt 0.499922 2.160676
vt 0.749604 1.000000
vt 0.468919 1.000000
vt 0.468919 0.879399
vt 0.749604 0.879399
vt 0.468919 0.755410
vt 0.749604 0.755410
vt 0.468919 0.639546
vt 0.749604 0.639546
vt 0.468919 0.535357
vt 0.749604 0.535357
vt 0.468919 0.434852
vt 0.749604 0.434852
vt 0.468919 0.342451
vt 0.749604 0.342451
vt 0.468919 0.223375
vt 0.749604 0.223375
vt 0.468919 0.106512
vt 0.749604 0.106512
vt 0.468919 -0.002040
vt 0.749604 -0.002030
vt 0.498514 2.161593
vt 0.498514 -0.972644
vt 0.252905 -0.972644
vt 0.252905 2.161593
vt 0.741922 0.799668
vt 0.741922 0.707434
vt 0.530631 0.707434
vt 0.530631 0.799668
vt 0.741922 0.612608
vt 0.530631 0.612608
vt 0.741922 0.523997
vt 0.530631 0.523997
vt 0.741922 0.444314
vt 0.530631 0.444314
vt 0.741922 0.367449
vt 0.530631 0.367449
vt 0.741922 0.296782
vt 0.530631 0.296782
vt 0.741922 0.205714
vt 0.530631 0.205714
vt 0.741922 0.116338
vt 0.530631 0.116338
vt 0.741922 0.033326
vt 0.530631 0.033319
vt 0.767026 3.288492
vt 0.767026 -5.607336
vt 0.808526 -5.607336
vt 0.808526 3.288492
vt 1.612336 -0.000668
vt 1.612336 1.000394
vt 1.361696 1.000394
vt 1.361691 -0.000668
vt 1.110534 1.000394
vt 1.110529 -0.000668
vt 0.858976 1.000394
vt 0.858976 -0.000668
vt 0.607163 1.000394
vt 0.607167 -0.000668
vt 0.355234 1.000394
vt 0.355242 -0.000668
vt 0.103329 1.000394
vt 0.103343 -0.000668
vt -0.148418 1.000394
vt -0.148398 -0.000668
vt -0.399838 1.000394
vt -0.399817 -0.000668
vt -0.650758 1.000394
vt -0.650741 -0.000668
vt 0.731603 3.060546
vt 0.795307 3.060546
vt 0.795307 -2.882895
vt 0.731603 -2.882895
vt 0.743802 -4.336688
vt 0.743802 5.078460
vt 0.754765 5.078460
vt 0.754765 -4.336688
vt 0.796273 0.991343
vt 0.766531 0.991343
vt 0.766531 -6.562242
vt 0.796274 -6.562242
vt 0.799216 -0.291741
vt 0.843051 -0.291741
vt 0.843051 -0.138096
vt 0.799216 -0.138100
vt 1.737646 0.000060
vt 1.737646 0.999949
vt 1.458431 0.999950
vt 1.458430 0.000060
vt 1.179216 0.999951
vt 1.179216 0.000060
vt 0.843051 0.035613
vt 0.799216 0.035604
vt 0.843051 0.224100
vt 0.799216 0.224088
vt 0.900000 0.999953
vt 0.900000 0.000060
vt 0.843051 0.421649
vt 0.799216 0.421636
vt 0.620782 0.999954
vt 0.620784 0.000058
vt 0.341562 0.999954
vt 0.341568 0.000057
vt 0.843051 0.622282
vt 0.799216 0.622269
vt 0.843051 0.819925
vt 0.799216 0.819911
vt 0.062342 0.999954
vt 0.062350 0.000054
vt -0.216877 0.999952
vt -0.216869 0.000052
vt 0.843051 1.008588
vt 0.799216 1.008568
vt -0.496098 0.999950
vt -0.496087 0.000049
vt 0.843051 1.182532
vt 0.799216 1.182505
vt 0.843051 1.336447
vt 0.799216 1.336414
vt -0.775318 0.999948
vt -0.775306 0.000046
vt 0.744217 5.080733
vt 0.756383 5.080733
vt 0.756383 -4.931949
vt 0.744217 -4.931949
vt 0.795757 0.992703
vt 0.795758 -6.562591
vt 0.767807 -6.562591
vt 0.767807 0.992703
vt 0.755625 -0.646431
vt 0.755625 -0.417004
vt 0.787000 -0.416997
vt 0.787000 -0.646431
vt 0.845423 2.090575
vt 0.845423 1.829900
vt 0.802547 1.829901
vt 0.802547 2.090575
vt 0.845423 1.569227
vt 0.802547 1.569227
vt 0.755625 -0.157617
vt 0.787000 -0.157603
vt 0.755625 0.123841
vt 0.787000 0.123859
vt 0.845423 1.308552
vt 0.802547 1.308552
vt 0.755625 0.418833
vt 0.787000 0.418852
vt 0.845423 1.047877
vt 0.802546 1.047875
vt 0.845423 0.787202
vt 0.802546 0.787196
vt 0.755625 0.718432
vt 0.787000 0.718451
vt 0.755625 1.013564
vt 0.787000 1.013585
vt 0.845423 0.526525
vt 0.802547 0.526517
vt 0.845423 0.265847
vt 0.802547 0.265839
vt 0.755625 1.295280
vt 0.787000 1.295309
vt 0.845423 0.005170
vt 0.802547 0.005160
vt 0.755625 1.555015
vt 0.787000 1.555054
vt 0.755625 1.784841
vt 0.787000 1.784890
vt 0.845424 -0.255508
vt 0.802547 -0.255519
vn 0.000000 1.000000 0.000000
vn 1.000000 0.000000 0.000000
vn 0.998300 0.000000 0.058700
vn 0.994700 0.000000 -0.102400
vn 0.961000 -0.000000 -0.276700
vn 0.894400 0.000000 -0.447300
vn 0.813800 0.000000 -0.581200
vn 0.684400 -0.000000 -0.729100
vn 0.554700 0.000000 -0.832000
vn 0.411500 -0.000000 -0.911400
vn 0.235600 0.000000 -0.971900
vn -1.000000 0.000000 0.000000
vn -0.998300 0.000000 0.058700
vn -0.996100 0.000000 -0.087900
vn -0.957100 0.000000 -0.289800
vn -0.894400 0.000000 -0.447300
vn -0.813800 0.000000 -0.581200
vn -0.677000 0.000000 -0.736000
vn -0.561500 0.000000 -0.827500
vn -0.411500 0.000000 -0.911400
vn -0.235600 0.000000 -0.971900
vn -0.378500 0.925600 0.000000
vn -0.378300 0.925100 0.033100
vn -0.366800 0.925100 0.098300
vn -0.344200 0.925100 0.160500
vn -0.311100 0.925100 0.217800
vn -0.268500 0.925100 0.268500
vn -0.217800 0.925100 0.311000
vn -0.160500 0.925100 0.344100
vn -0.098300 0.925100 0.366800
vn -0.033100 0.925100 0.378200
vn 0.378500 0.925600 0.000000
vn 0.378300 0.925100 0.033100
vn 0.366800 0.925100 0.098300
vn 0.344200 0.925100 0.160500
vn 0.311100 0.925100 0.217800
vn 0.268500 0.925100 0.268500
vn 0.217800 0.925100 0.311000
vn 0.160500 0.925100 0.344100
vn 0.098300 0.925100 0.366800
vn 0.033100 0.925100 0.378200
vn -0.996200 -0.000000 0.087100
vn -0.965900 0.000000 0.258800
vn -0.906300 0.000000 0.422600
vn -0.819200 0.000000 0.573500
vn -0.707200 0.000000 0.707100
vn -0.573600 0.000000 0.819100
vn -0.422700 0.000000 0.906300
vn -0.258900 0.000000 0.965900
vn -0.087200 0.000000 0.996200
vn 0.996200 0.000000 0.087100
vn 0.965900 0.000000 0.258800
vn 0.906300 0.000000 0.422600
vn 0.819200 0.000000 0.573500
vn 0.707200 0.000000 0.707100
vn 0.573600 0.000000 0.819100
vn 0.422700 0.000000 0.906300
vn 0.258900 0.000000 0.965900
vn 0.087200 0.000000 0.996200
s off
f 1/1/1 2/2/1 3/3/1 4/4/1
f 2/5/1 1/6/1 5/7/1 6/8/1
f 6/8/1 5/7/1 7/9/1 8/10/1
f 8/10/1 7/9/1 9/11/1 10/10/1
f 10/10/1 9/11/1 11/12/1 12/13/1
f 12/13/1 11/12/1 13/14/1 14/15/1
f 14/15/1 13/14/1 15/16/1 16/15/1
f 16/15/1 15/16/1 17/17/1 18/18/1
f 18/18/1 17/17/1 19/19/1 20/20/1
f 20/20/1 19/19/1 21/21/1 22/22/1
f 23/23/1 24/24/1 25/25/1 26/26/1
f 26/27/1 27/28/1 28/29/1 23/30/1
f 27/28/1 29/31/1 30/32/1 28/29/1
f 29/31/1 31/33/1 32/34/1 30/32/1
f 31/33/1 33/33/1 34/35/1 32/34/1
f 33/33/1 35/36/1 36/37/1 34/35/1
f 35/36/1 37/38/1 38/39/1 36/37/1
f 37/38/1 39/38/1 40/40/1 38/39/1
f 39/38/1 41/41/1 42/42/1 40/40/1
f 41/41/1 43/41/1 44/43/1 42/42/1
f 45/44/1 46/45/1 47/46/1
f 47/46/1 46/45/1 48/47/1 49/48/1
f 49/48/1 48/47/1 50/49/1 51/50/1
f 51/50/1 50/49/1 52/51/1 53/52/1
f 53/52/1 52/51/1 54/53/1 55/54/1
f 55/54/1 54/53/1 56/55/1 57/56/1
f 57/56/1 56/55/1 58/57/1 59/58/1
f 59/58/1 58/57/1 60/59/1 61/60/1
f 61/60/1 60/59/1 62/61/1 63/62/1
f 64/63/2 65/63/2 3/63/2 2/63/2
f 64/63/3 2/63/3 6/63/3 66/63/3
f 66/63/4 6/63/4 8/63/4 67/63/4
f 67/63/5 8/63/5 10/63/5 68/63/5
f 68/63/6 10/63/6 12/63/6 69/63/6
f 69/63/7 12/63/7 14/63/7 70/63/7
f 70/63/8 14/63/8 16/63/8 71/63/8
f 71/63/9 16/63/9 18/63/9 72/63/9
f 72/63/10 18/63/10 20/63/10 73/63/10
f 73/63/11 20/63/11 22/63/11 74/63/11
f 75/63/12 26/63/12 25/63/12 76/63/12
f 75/63/13 77/63/13 27/63/13 26/63/13
f 77/63/14 78/63/14 29/63/14 27/63/14
f 78/63/15 79/63/15 31/63/15 29/63/15
f 79/63/16 80/63/16 33/63/16 31/63/16
f 80/63/17 81/63/17 35/63/17 33/63/17
f 81/63/18 82/63/18 37/63/18 35/63/18
f 82/63/19 83/63/19 39/63/19 37/63/19
f 83/63/20 84/63/20 41/63/20 39/63/20
f 84/63/21 85/63/21 43/63/21 41/63/21
f 45/64/1 86/65/1 87/66/1 88/67/1
f 86/68/1 45/69/1 47/70/1 89/71/1
f 89/71/1 47/70/1 49/72/1 90/73/1
f 90/73/1 49/72/1 51/74/1 91/75/1
f 91/75/1 51/74/1 53/76/1 92/77/1
f 92/77/1 53/76/1 55/78/1 93/79/1
f 93/79/1 55/78/1 57/80/1 94/81/1
f 94/81/1 57/80/1 59/82/1 95/83/1
f 95/83/1 59/82/1 61/84/1 96/85/1
f 96/85/1 61/84/1 63/86/1 97/87/1
f 45/88/1 88/89/1 98/90/1 99/91/1
f 99/92/1 100/93/1 46/94/1 45/95/1
f 100/93/1 101/96/1 48/97/1 46/94/1
f 101/96/1 102/98/1 50/99/1 48/97/1
f 102/98/1 103/100/1 52/101/1 50/99/1
f 103/100/1 104/102/1 54/103/1 52/101/1
f 104/102/1 105/104/1 56/105/1 54/103/1
f 105/104/1 106/106/1 58/107/1 56/105/1
f 106/106/1 107/108/1 60/109/1 58/107/1
f 107/108/1 108/110/1 62/111/1 60/109/1
f 109/112/22 110/113/22 111/114/22 112/115/22
f 109/116/23 112/117/23 113/118/23 114/119/23
f 114/119/24 113/118/24 115/120/24 116/121/24
f 116/121/25 115/120/25 117/122/25 118/123/25
f 118/123/26 117/122/26 119/124/26 120/125/26
f 120/125/27 119/124/27 121/126/27 122/127/27
f 122/127/28 121/126/28 123/128/28 124/129/28
f 124/129/29 123/128/29 125/130/29 126/131/29
f 126/131/30 125/130/30 127/132/30 128/133/30
f 128/133/31 127/132/31 129/134/31 130/135/31
f 131/136/32 132/137/32 133/138/32 134/139/32
f 131/116/33 135/119/33 136/118/33 132/117/33
f 135/119/34 137/121/34 138/120/34 136/118/34
f 137/121/35 139/123/35 140/122/35 138/120/35
f 139/123/36 141/125/36 142/124/36 140/122/36
f 141/125/37 143/127/37 144/126/37 142/124/37
f 143/127/38 145/129/38 146/128/38 144/126/38
f 145/129/39 147/131/39 148/130/39 146/128/39
f 147/131/40 149/133/40 150/132/40 148/130/40
f 149/133/41 151/135/41 152/134/41 150/132/41
f 87/140/12 86/141/12 112/142/12 111/143/12
f 109/144/1 1/145/1 4/146/1 110/147/1
f 1/148/1 109/149/1 114/150/1 5/151/1
f 112/152/42 86/153/42 89/154/42 113/155/42
f 113/155/43 89/154/43 90/156/43 115/157/43
f 5/151/1 114/150/1 116/158/1 7/159/1
f 7/159/1 116/158/1 118/160/1 9/161/1
f 115/157/44 90/156/44 91/162/44 117/163/44
f 9/161/1 118/160/1 120/164/1 11/165/1
f 117/163/45 91/162/45 92/166/45 119/167/45
f 119/167/46 92/166/46 93/168/46 121/169/46
f 11/165/1 120/164/1 122/170/1 13/171/1
f 13/171/1 122/170/1 124/172/1 15/173/1
f 121/169/47 93/168/47 94/174/47 123/175/47
f 123/175/48 94/174/48 95/176/48 125/177/48
f 15/173/1 124/172/1 126/178/1 17/179/1
f 125/177/49 95/176/49 96/180/49 127/181/49
f 17/179/1 126/178/1 128/182/1 19/183/1
f 19/183/1 128/182/1 130/184/1 21/185/1
f 127/181/50 96/180/50 97/186/50 129/187/50
f 98/188/2 133/189/2 132/190/2 99/191/2
f 131/192/1 134/193/1 24/194/1 23/195/1
f 23/196/1 28/197/1 135/198/1 131/199/1
f 132/200/51 136/201/51 100/202/51 99/203/51
f 136/201/52 138/204/52 101/205/52 100/202/52
f 28/197/1 30/206/1 137/207/1 135/198/1
f 30/206/1 32/208/1 139/209/1 137/207/1
f 138/204/53 140/210/53 102/211/53 101/205/53
f 32/208/1 34/212/1 141/213/1 139/209/1
f 140/210/54 142/214/54 103/215/54 102/211/54
f 142/214/55 144/216/55 104/217/55 103/215/55
f 34/212/1 36/218/1 143/219/1 141/213/1
f 36/218/1 38/220/1 145/221/1 143/219/1
f 144/216/56 146/222/56 105/223/56 104/217/56
f 146/222/57 148/224/57 106/225/57 105/223/57
f 38/220/1 40/226/1 147/227/1 145/221/1
f 148/224/58 150/228/58 107/229/58 106/225/58
f 40/226/1 42/230/1 149/231/1 147/227/1
f 42/230/1 44/232/1 151/233/1 149/231/1
f 150/228/59 152/234/59 108/235/59 107/229/59
