# Blender v2.75 (sub 0) OBJ File: 'room1.blend'
# www.blender.org
mtllib room1.mtl
o Plane_Plane.003
v -8.015952 0.000105 7.963878
v 7.984048 0.000105 7.963878
v -8.015952 0.000105 -8.036122
v 7.984048 0.000105 -8.036122
v -8.015952 0.000105 -6.436122
v -8.015952 0.000105 -4.836122
v -8.015952 0.000105 -3.236122
v -8.015952 0.000105 -1.636122
v -8.015952 0.000105 -0.036122
v -8.015952 0.000105 1.563878
v -8.015952 0.000105 3.163878
v -8.015952 0.000105 4.763878
v -8.015952 0.000105 6.363878
v -6.415952 0.000105 7.963878
v -4.815952 0.000105 7.963878
v -3.215952 0.000105 7.963878
v -1.615952 0.000105 7.963878
v -0.015952 0.000105 7.963878
v 1.584048 0.000105 7.963878
v 3.184048 0.000105 7.963878
v 4.784048 0.000105 7.963878
v 6.384048 0.000105 7.963878
v 7.984048 0.000105 6.363878
v 7.984048 0.000105 4.763878
v 7.984048 0.000105 3.163878
v 7.984048 0.000105 1.563878
v 7.984048 0.000105 -0.036122
v 7.984048 0.000105 -1.636122
v 7.984048 0.000105 -3.236122
v 7.984048 0.000105 -4.836122
v 7.984048 0.000105 -6.436122
v 6.384048 0.000105 -8.036122
v 4.784048 0.000105 -8.036122
v 3.184048 0.000105 -8.036122
v 1.584048 0.000105 -8.036122
v -0.015952 0.000105 -8.036122
v -1.615952 0.000105 -8.036122
v -3.215952 0.000105 -8.036122
v -4.815952 0.000105 -8.036122
v -6.415952 0.000105 -8.036122
v -6.415952 0.000105 6.363878
v -6.415952 0.000105 4.763878
v -6.415952 0.000105 3.163878
v -6.415952 0.000105 1.563878
v -6.415952 0.000105 -0.036122
v -6.415952 0.000105 -1.636122
v -6.415952 0.000105 -3.236122
v -6.415952 0.000105 -4.836122
v -6.415952 0.000105 -6.436122
v -4.815952 0.000105 6.363878
v -4.815952 0.000105 4.763878
v -4.815952 0.000105 3.163878
v -4.815952 0.000105 1.563878
v -4.815952 0.000105 -0.036122
v -4.815952 0.000105 -1.636122
v -4.815952 0.000105 -3.236122
v -4.815952 0.000105 -4.836122
v -4.815952 0.000105 -6.436122
v -3.215952 0.000105 6.363878
v -3.215952 0.000105 4.763878
v -3.215952 0.000105 3.163878
v -3.215952 0.000105 1.563878
v -3.215952 0.000105 -0.036122
v -3.215952 0.000105 -1.636122
v -3.215952 0.000105 -3.236122
v -3.215952 0.000105 -4.836122
v -3.215952 0.000105 -6.436122
v -1.615952 0.000105 6.363878
v -1.615952 0.000105 4.763878
v -1.615952 0.000105 3.163878
v -1.615952 0.000105 1.563878
v -1.615952 0.000105 -0.036122
v -1.615952 0.000105 -1.636122
v -1.615952 0.000105 -3.236122
v -1.615952 0.000105 -4.836122
v -1.615952 0.000105 -6.436122
v -0.015952 0.000105 6.363878
v -0.015952 0.000105 4.763878
v -0.015952 0.000105 3.163878
v -0.015952 0.000105 1.563878
v -0.015952 0.000105 -0.036122
v -0.015952 0.000105 -1.636122
v -0.015952 0.000105 -3.236122
v -0.015952 0.000105 -4.836122
v -0.015952 0.000105 -6.436122
v 1.584048 0.000105 6.363878
v 1.584048 0.000105 4.763878
v 1.584048 0.000105 3.163878
v 1.584048 0.000105 1.563878
v 1.584048 0.000105 -0.036122
v 1.584048 0.000105 -1.636122
v 1.584048 0.000105 -3.236122
v 1.584048 0.000105 -4.836122
v 1.584048 0.000105 -6.436122
v 3.184048 0.000105 6.363878
v 3.184048 0.000105 4.763878
v 3.184048 0.000105 3.163878
v 3.184048 0.000105 1.563878
v 3.184048 0.000105 -0.036122
v 3.184048 0.000105 -1.636122
v 3.184048 0.000105 -3.236122
v 3.184048 0.000105 -4.836122
v 3.184048 0.000105 -6.436122
v 4.784048 0.000105 6.363878
v 4.784048 0.000105 4.763878
v 4.784048 0.000105 3.163878
v 4.784048 0.000105 1.563878
v 4.784048 0.000105 -0.036122
v 4.784048 0.000105 -1.636122
v 4.784048 0.000105 -3.236122
v 4.784048 0.000105 -4.836122
v 4.784048 0.000105 -6.436122
v 6.384048 0.000105 6.363878
v 6.384048 0.000105 4.763878
v 6.384048 0.000105 3.163878
v 6.384048 0.000105 1.563878
v 6.384048 0.000105 -0.036122
v 6.384048 0.000105 -1.636122
v 6.384048 0.000105 -3.236122
v 6.384048 0.000105 -4.836122
v 6.384048 0.000105 -6.436122
v -8.015952 3.000105 -8.036122
v 7.984048 3.000105 -8.036122
v 6.384048 3.000105 -8.036122
v 4.784048 3.000105 -8.036122
v 3.184048 3.000105 -8.036122
v 1.584048 3.000105 -8.036122
v -0.015952 3.000105 -8.036122
v -1.615952 3.000105 -8.036122
v -3.215952 3.000105 -8.036122
v -4.815952 3.000105 -8.036122
v -6.415952 3.000105 -8.036122
v 7.984048 0.000105 7.963878
v 7.984048 0.000105 -8.036122
v 7.984048 0.000105 6.363878
v 7.984048 0.000105 4.763878
v 7.984048 0.000105 3.163878
v 7.984048 0.000105 1.563878
v 7.984048 0.000105 -0.036122
v 7.984048 0.000105 -1.636122
v 7.984048 0.000105 -3.236122
v 7.984048 0.000105 -4.836122
v 7.984048 0.000105 -6.436122
v -8.015952 3.000105 -8.036122
v 7.984048 3.000105 -8.036122
v 6.384048 3.000105 -8.036122
v 4.784048 3.000105 -8.036122
v 3.184048 3.000105 -8.036122
v 1.584048 3.000105 -8.036122
v -0.015952 3.000105 -8.036122
v -1.615952 3.000105 -8.036122
v -3.215952 3.000105 -8.036122
v -4.815952 3.000105 -8.036122
v -6.415952 3.000105 -8.036122
v -8.015952 0.000105 7.963878
v 7.984048 0.000105 7.963878
v -8.015952 0.000105 -8.036122
v 7.984048 0.000105 -8.036122
v -8.015952 0.000105 -6.436122
v -8.015952 0.000105 -4.836122
v -8.015952 0.000105 -3.236122
v -8.015952 0.000105 -1.636122
v -8.015952 0.000105 -0.036122
v -8.015952 0.000105 1.563878
v -8.015952 0.000105 3.163878
v -8.015952 0.000105 4.763878
v -8.015952 0.000105 6.363878
v -6.415952 0.000105 7.963878
v -4.815952 0.000105 7.963878
v -3.215952 0.000105 7.963878
v -1.615952 0.000105 7.963878
v -0.015952 0.000105 7.963878
v 1.584048 0.000105 7.963878
v 3.184048 0.000105 7.963878
v 4.784048 0.000105 7.963878
v 6.384048 0.000105 7.963878
v -8.015952 3.000105 -8.036122
v 7.984048 3.000105 -8.036122
v 7.984048 0.000105 -8.036122
v -8.015952 3.000105 -8.036122
v 7.984048 3.000105 -8.036122
v -8.015952 3.000105 7.963878
v 7.984048 3.000105 7.963878
v -8.015952 3.000105 -8.036122
v 7.984048 3.000105 -8.036122
v -8.015952 3.000105 -6.436122
v -8.015952 3.000105 -4.836122
v -8.015952 3.000105 -3.236122
v -8.015952 3.000105 -1.636122
v -8.015952 3.000105 -0.036122
v -8.015952 3.000105 1.563878
v -8.015952 3.000105 3.163878
v -8.015952 3.000105 4.763878
v -8.015952 3.000105 6.363878
v -6.415952 3.000105 7.963878
v -4.815952 3.000105 7.963878
v -3.215952 3.000105 7.963878
v -1.615952 3.000105 7.963878
v -0.015952 3.000105 7.963878
v 1.584048 3.000105 7.963878
v 3.184048 3.000105 7.963878
v 4.784048 3.000105 7.963878
v 6.384048 3.000105 7.963878
v 7.984048 3.000105 6.363878
v 7.984048 3.000105 4.763878
v 7.984048 3.000105 3.163878
v 7.984048 3.000105 1.563878
v 7.984048 3.000105 -0.036122
v 7.984048 3.000105 -1.636122
v 7.984048 3.000105 -3.236122
v 7.984048 3.000105 -4.836122
v 7.984048 3.000105 -6.436122
v 7.984048 3.000105 7.963878
v 7.984048 3.000105 -8.036122
v 7.984048 3.000105 6.363878
v 7.984048 3.000105 4.763878
v 7.984048 3.000105 3.163878
v 7.984048 3.000105 1.563878
v 7.984048 3.000105 -0.036122
v 7.984048 3.000105 -1.636122
v 7.984048 3.000105 -3.236122
v 7.984048 3.000105 -4.836122
v 7.984048 3.000105 -6.436122
v -8.015952 3.000105 7.963878
v 7.984048 3.000105 7.963878
v -8.015952 3.000105 -8.036122
v 7.984048 3.000105 -8.036122
v -8.015952 3.000105 -6.436122
v -8.015952 3.000105 -4.836122
v -8.015952 3.000105 -3.236122
v -8.015952 3.000105 -1.636122
v -8.015952 3.000105 -0.036122
v -8.015952 3.000105 1.563878
v -8.015952 3.000105 3.163878
v -8.015952 3.000105 4.763878
v -8.015952 3.000105 6.363878
v -6.415952 3.000105 7.963878
v -4.815952 3.000105 7.963878
v -3.215952 3.000105 7.963878
v -1.615952 3.000105 7.963878
v -0.015952 3.000105 7.963878
v 1.584048 3.000105 7.963878
v 3.184048 3.000105 7.963878
v 4.784048 3.000105 7.963878
v 6.384048 3.000105 7.963878
v 7.984048 3.000105 -8.036122
vt 0.447367 0.557066
vt 0.447367 0.509118
vt 0.496861 0.509118
vt 0.496861 0.557066
vt 0.447367 0.988597
vt 0.447367 0.940649
vt 0.496861 0.940649
vt 0.496861 0.988597
vt 0.447367 0.892701
vt 0.496861 0.892701
vt 0.447367 0.844753
vt 0.496861 0.844753
vt 0.447367 0.796805
vt 0.496861 0.796805
vt 0.447367 0.748857
vt 0.496861 0.748857
vt 0.447367 0.700910
vt 0.496861 0.700910
vt 0.447367 0.652962
vt 0.496861 0.652962
vt 0.447367 0.605014
vt 0.496861 0.605014
vt 0.000199 0.994412
vt 0.000199 0.500247
vt 0.498881 0.500247
vt 0.498881 0.994412
vt 0.051410 0.988597
vt 0.051410 0.940649
vt 0.100905 0.940649
vt 0.100905 0.988597
vt 0.150400 0.940649
vt 0.150400 0.988597
vt 0.199894 0.940649
vt 0.199894 0.988597
vt 0.249389 0.940649
vt 0.249389 0.988597
vt 0.298883 0.940649
vt 0.298883 0.988597
vt 0.348378 0.940649
vt 0.348378 0.988597
vt 0.397872 0.940649
vt 0.397872 0.988597
vt 0.001916 0.940649
vt 0.001916 0.892701
vt 0.051410 0.892701
vt 0.100905 0.892701
vt 0.150400 0.892701
vt 0.199894 0.892701
vt 0.249389 0.892701
vt 0.298883 0.892701
vt 0.348378 0.892701
vt 0.397872 0.892701
vt 0.001916 0.844753
vt 0.051410 0.844753
vt 0.100905 0.844753
vt 0.150400 0.844753
vt 0.199894 0.844753
vt 0.249389 0.844753
vt 0.298883 0.844753
vt 0.348378 0.844753
vt 0.397872 0.844753
vt 0.001916 0.796805
vt 0.051410 0.796805
vt 0.100905 0.796805
vt 0.150400 0.796805
vt 0.199894 0.796805
vt 0.249389 0.796805
vt 0.298883 0.796805
vt 0.348378 0.796805
vt 0.397872 0.796805
vt 0.001916 0.748858
vt 0.051410 0.748858
vt 0.100905 0.748858
vt 0.150400 0.748858
vt 0.199894 0.748858
vt 0.249389 0.748857
vt 0.298883 0.748857
vt 0.348378 0.748857
vt 0.397872 0.748857
vt 0.001916 0.700910
vt 0.051410 0.700910
vt 0.100905 0.700910
vt 0.150400 0.700910
vt 0.199894 0.700910
vt 0.249389 0.700910
vt 0.298883 0.700910
vt 0.348378 0.700910
vt 0.397872 0.700910
vt 0.001916 0.652962
vt 0.051410 0.652962
vt 0.100905 0.652962
vt 0.150399 0.652962
vt 0.199894 0.652962
vt 0.249389 0.652962
vt 0.298883 0.652962
vt 0.348378 0.652962
vt 0.397872 0.652962
vt 0.001916 0.605014
vt 0.051410 0.605014
vt 0.100905 0.605014
vt 0.150399 0.605014
vt 0.199894 0.605014
vt 0.249389 0.605014
vt 0.298883 0.605014
vt 0.348378 0.605014
vt 0.397872 0.605014
vt 0.001916 0.557066
vt 0.051410 0.557066
vt 0.100905 0.557066
vt 0.150399 0.557066
vt 0.199894 0.557066
vt 0.249389 0.557066
vt 0.298883 0.557066
vt 0.348378 0.557066
vt 0.397872 0.557066
vt 0.001916 0.509118
vt 0.051410 0.509118
vt 0.100905 0.509118
vt 0.150399 0.509118
vt 0.199894 0.509118
vt 0.249389 0.509118
vt 0.298883 0.509118
vt 0.348378 0.509118
vt 0.397872 0.509118
vt 0.012230 0.489427
vt 0.012230 0.244895
vt 0.485518 0.244895
vt 0.485518 0.489427
vt 0.903226 0.350000
vt 0.903226 0.300000
vt 1.000000 0.300000
vt 1.000000 0.350000
vt 0.903226 0.250000
vt 0.903226 0.200000
vt 1.000000 0.200000
vt 1.000000 0.250000
vt 0.903226 0.150000
vt 1.000000 0.150000
vt 0.806451 0.900000
vt 0.806451 0.950000
vt 0.709677 0.950000
vt 0.709677 0.900000
vt 0.903226 0.100000
vt 1.000000 0.100000
vt 0.806451 0.850000
vt 0.709677 0.850000
vt 0.806451 0.800000
vt 0.709677 0.800000
vt 0.806451 0.750000
vt 0.709677 0.750000
vt 0.806451 0.700000
vt 0.709677 0.700000
vt 0.806451 0.650000
vt 0.709677 0.650000
vt 0.806451 0.600000
vt 0.709677 0.600000
vt 0.806451 0.550000
vt 0.709677 0.550000
vt 0.806451 0.500000
vt 0.709677 0.500000
vt 0.806451 1.000000
vt 0.709677 1.000000
vt 0.505156 0.518183
vt 0.997962 0.518183
vt 0.997962 0.995589
vt 0.505156 0.995589
vt 0.806452 0.150000
vt 0.806451 0.100000
vt 0.806452 0.450000
vt 0.903226 0.450000
vt 0.903226 0.500000
vt 0.806452 0.350000
vt 0.806452 0.300000
vt 0.806452 0.200000
vt 0.806451 0.050000
vt 0.806451 0.000000
vt 0.903226 0.000000
vt 0.903226 0.050000
vt 0.806452 0.400000
vt 0.903226 0.400000
vt 0.806452 0.250000
vt 0.709677 0.250000
vt 0.709677 0.200000
vt 0.612903 0.300000
vt 0.612903 0.350000
vt 0.516129 0.350000
vt 0.516129 0.300000
vt 0.709677 0.300000
vt 0.612903 0.250000
vt 0.516129 0.250000
vt 1.000000 0.400000
vt 0.709677 0.350000
vt 0.612903 0.200000
vt 0.516129 0.200000
vt 0.709677 0.400000
vt 0.612903 0.150000
vt 0.516129 0.150000
vt 0.709677 0.450000
vt 0.612903 0.100000
vt 0.516129 0.100000
vt 0.612903 0.050000
vt 0.516129 0.050000
vt 0.000000 0.000000
vt 0.612903 0.000000
vt 0.516129 0.000000
vt 0.612903 0.450000
vt 0.612903 0.500000
vt 0.516129 0.500000
vt 0.516129 0.450000
vt 1.000000 0.050000
vt 1.000000 0.000000
vt 0.612903 0.550000
vt 0.612903 0.600000
vt 0.516129 0.600000
vt 0.516129 0.550000
vt 0.612903 0.650000
vt 0.516129 0.650000
vt 0.612903 0.700000
vt 0.516129 0.700000
vt 0.709677 0.000000
vt 0.709677 0.050000
vt 0.612903 0.750000
vt 0.516129 0.750000
vt 1.000000 0.450000
vt 1.000000 0.500000
vt 0.612903 0.800000
vt 0.516129 0.800000
vt 0.612903 0.850000
vt 0.516129 0.850000
vt 0.612903 0.900000
vt 0.516129 0.900000
vt 0.612903 0.950000
vt 0.516129 0.950000
vt 0.612903 1.000000
vt 0.516129 1.000000
vt 0.709677 0.100000
vt 0.709677 0.150000
vt 0.612903 0.400000
vt 0.516129 0.400000
vn 0.000000 1.000000 0.000000
vn 1.000000 0.000000 0.000000
vn -1.000000 0.000000 0.000000
vn 0.000000 -1.000000 0.000000
vn 0.000000 0.000000 1.000000
vn 0.000000 0.000000 -1.000000
usemtl Material.001
s off
f 121/1/1 31/2/1 4/3/1 32/4/1
f 5/5/1 49/6/1 40/7/1 3/8/1
f 49/6/1 58/9/1 39/10/1 40/7/1
f 58/9/1 67/11/1 38/12/1 39/10/1
f 67/11/1 76/13/1 37/14/1 38/12/1
f 76/13/1 85/15/1 36/16/1 37/14/1
f 85/15/1 94/17/1 35/18/1 36/16/1
f 94/17/1 103/19/1 34/20/1 35/18/1
f 103/19/1 112/21/1 33/22/1 34/20/1
f 112/21/1 121/1/1 32/4/1 33/22/1
f 1/23/1 14/24/1 41/25/1 13/26/1
f 13/27/1 41/28/1 42/29/1 12/30/1
f 12/30/1 42/29/1 43/31/1 11/32/1
f 11/32/1 43/31/1 44/33/1 10/34/1
f 10/34/1 44/33/1 45/35/1 9/36/1
f 9/36/1 45/35/1 46/37/1 8/38/1
f 8/38/1 46/37/1 47/39/1 7/40/1
f 7/40/1 47/39/1 48/41/1 6/42/1
f 6/42/1 48/41/1 49/6/1 5/5/1
f 14/43/1 15/44/1 50/45/1 41/28/1
f 41/28/1 50/45/1 51/46/1 42/29/1
f 42/29/1 51/46/1 52/47/1 43/31/1
f 43/31/1 52/47/1 53/48/1 44/33/1
f 44/33/1 53/48/1 54/49/1 45/35/1
f 45/35/1 54/49/1 55/50/1 46/37/1
f 46/37/1 55/50/1 56/51/1 47/39/1
f 47/39/1 56/51/1 57/52/1 48/41/1
f 48/41/1 57/52/1 58/9/1 49/6/1
f 15/44/1 16/53/1 59/54/1 50/45/1
f 50/45/1 59/54/1 60/55/1 51/46/1
f 51/46/1 60/55/1 61/56/1 52/47/1
f 52/47/1 61/56/1 62/57/1 53/48/1
f 53/48/1 62/57/1 63/58/1 54/49/1
f 54/49/1 63/58/1 64/59/1 55/50/1
f 55/50/1 64/59/1 65/60/1 56/51/1
f 56/51/1 65/60/1 66/61/1 57/52/1
f 57/52/1 66/61/1 67/11/1 58/9/1
f 16/53/1 17/62/1 68/63/1 59/54/1
f 59/54/1 68/63/1 69/64/1 60/55/1
f 60/55/1 69/64/1 70/65/1 61/56/1
f 61/56/1 70/65/1 71/66/1 62/57/1
f 62/57/1 71/66/1 72/67/1 63/58/1
f 63/58/1 72/67/1 73/68/1 64/59/1
f 64/59/1 73/68/1 74/69/1 65/60/1
f 65/60/1 74/69/1 75/70/1 66/61/1
f 66/61/1 75/70/1 76/13/1 67/11/1
f 17/62/1 18/71/1 77/72/1 68/63/1
f 68/63/1 77/72/1 78/73/1 69/64/1
f 69/64/1 78/73/1 79/74/1 70/65/1
f 70/65/1 79/74/1 80/75/1 71/66/1
f 71/66/1 80/75/1 81/76/1 72/67/1
f 72/67/1 81/76/1 82/77/1 73/68/1
f 73/68/1 82/77/1 83/78/1 74/69/1
f 74/69/1 83/78/1 84/79/1 75/70/1
f 75/70/1 84/79/1 85/15/1 76/13/1
f 18/71/1 19/80/1 86/81/1 77/72/1
f 77/72/1 86/81/1 87/82/1 78/73/1
f 78/73/1 87/82/1 88/83/1 79/74/1
f 79/74/1 88/83/1 89/84/1 80/75/1
f 80/75/1 89/84/1 90/85/1 81/76/1
f 81/76/1 90/85/1 91/86/1 82/77/1
f 82/77/1 91/86/1 92/87/1 83/78/1
f 83/78/1 92/87/1 93/88/1 84/79/1
f 84/79/1 93/88/1 94/17/1 85/15/1
f 19/80/1 20/89/1 95/90/1 86/81/1
f 86/81/1 95/90/1 96/91/1 87/82/1
f 87/82/1 96/91/1 97/92/1 88/83/1
f 88/83/1 97/92/1 98/93/1 89/84/1
f 89/84/1 98/93/1 99/94/1 90/85/1
f 90/85/1 99/94/1 100/95/1 91/86/1
f 91/86/1 100/95/1 101/96/1 92/87/1
f 92/87/1 101/96/1 102/97/1 93/88/1
f 93/88/1 102/97/1 103/19/1 94/17/1
f 20/89/1 21/98/1 104/99/1 95/90/1
f 95/90/1 104/99/1 105/100/1 96/91/1
f 96/91/1 105/100/1 106/101/1 97/92/1
f 97/92/1 106/101/1 107/102/1 98/93/1
f 98/93/1 107/102/1 108/103/1 99/94/1
f 99/94/1 108/103/1 109/104/1 100/95/1
f 100/95/1 109/104/1 110/105/1 101/96/1
f 101/96/1 110/105/1 111/106/1 102/97/1
f 102/97/1 111/106/1 112/21/1 103/19/1
f 21/98/1 22/107/1 113/108/1 104/99/1
f 104/99/1 113/108/1 114/109/1 105/100/1
f 105/100/1 114/109/1 115/110/1 106/101/1
f 106/101/1 115/110/1 116/111/1 107/102/1
f 107/102/1 116/111/1 117/112/1 108/103/1
f 108/103/1 117/112/1 118/113/1 109/104/1
f 109/104/1 118/113/1 119/114/1 110/105/1
f 110/105/1 119/114/1 120/115/1 111/106/1
f 111/106/1 120/115/1 121/1/1 112/21/1
f 22/107/1 2/116/1 23/117/1 113/108/1
f 113/108/1 23/117/1 24/118/1 114/109/1
f 114/109/1 24/118/1 25/119/1 115/110/1
f 115/110/1 25/119/1 26/120/1 116/111/1
f 116/111/1 26/120/1 27/121/1 117/112/1
f 117/112/1 27/121/1 28/122/1 118/113/1
f 118/113/1 28/122/1 29/123/1 119/114/1
f 119/114/1 29/123/1 30/124/1 120/115/1
f 120/115/1 30/124/1 31/2/1 121/1/1
f 13/125/2 12/126/2 193/127/2 194/128/2
f 11/129/2 10/130/2 191/131/2 192/132/2
f 9/133/2 8/134/2 189/135/2 190/136/2
f 8/134/2 7/137/2 188/138/2 189/135/2
f 166/139/3 167/140/3 236/141/3 235/142/3
f 7/137/2 6/143/2 187/144/2 188/138/2
f 165/145/3 166/139/3 235/142/3 234/146/3
f 164/147/3 165/145/3 234/146/3 233/148/3
f 163/149/3 164/147/3 233/148/3 232/150/3
f 162/151/3 163/149/3 232/150/3 231/152/3
f 161/153/3 162/151/3 231/152/3 230/154/3
f 160/155/3 161/153/3 230/154/3 229/156/3
f 159/157/3 160/155/3 229/156/3 228/158/3
f 157/159/3 159/157/3 228/158/3 226/160/3
f 167/140/3 155/161/3 224/162/3 236/141/3
f 246/163/4 225/164/4 224/165/4 226/166/4
usemtl Material.001_NONE
f 34/167/5 33/168/5 125/143/5 126/137/5
f 3/159/5 40/169/5 132/170/5 122/171/5
f 38/172/5 37/173/5 129/130/5 130/129/5
f 35/174/5 34/167/5 126/137/5 127/134/5
f 32/175/5 4/176/5 123/177/5 124/178/5
f 39/179/5 38/172/5 130/129/5 131/180/5
f 36/181/5 35/174/5 127/134/5 128/133/5
f 33/168/5 32/175/5 124/178/5 125/143/5
f 40/169/5 39/179/5 131/180/5 132/170/5
f 37/173/5 36/181/5 128/133/5 129/130/5
f 172/182/5 173/183/5 242/174/5 241/181/5
f 140/184/2 141/185/2 221/186/2 220/187/2
f 171/188/5 172/182/5 241/181/5 240/173/5
f 139/189/2 140/184/2 220/187/2 219/190/2
f 12/180/2 11/129/2 192/132/2 193/191/2
f 170/192/5 171/188/5 240/173/5 239/172/5
f 138/193/2 139/189/2 219/190/2 218/194/2
f 169/195/5 170/192/5 239/172/5 238/179/5
f 137/196/2 138/193/2 218/194/2 217/197/2
f 10/130/2 9/133/2 190/136/2 191/131/2
f 168/198/5 169/195/5 238/179/5 237/169/5
f 136/199/2 137/196/2 217/197/2 216/200/2
f 155/160/5 168/198/5 237/169/5 224/159/5
f 135/201/2 136/199/2 216/200/2 215/202/2
f 178/203/5 158/203/5 179/203/5 181/203/5
f 133/204/2 135/201/2 215/202/2 213/205/2
f 143/206/2 134/207/2 214/208/2 223/209/2
f 6/143/2 5/178/2 186/210/2 187/144/2
f 5/178/2 3/177/2 184/211/2 186/210/2
f 31/212/3 30/213/3 211/214/3 212/215/3
f 134/203/5 179/203/5 246/203/5 214/203/5
f 30/213/3 29/216/3 210/217/3 211/214/3
f 4/207/3 31/212/3 212/215/3 185/208/3
f 29/216/3 28/218/3 209/219/3 210/217/3
f 2/220/6 22/221/6 203/201/6 183/204/6
f 28/218/3 27/222/3 208/223/3 209/219/3
f 1/171/2 13/170/2 194/224/2 182/225/2
f 3/203/5 122/203/5 177/203/5 157/203/5
f 27/222/3 26/226/3 207/227/3 208/223/3
f 26/226/3 25/228/3 206/229/3 207/227/3
f 134/203/5 145/203/5 181/203/5 179/203/5
f 25/228/3 24/230/3 205/231/3 206/229/3
f 176/221/5 156/220/5 225/176/5 245/175/5
f 24/230/3 23/232/3 204/233/3 205/231/3
f 23/232/3 2/234/3 183/235/3 204/233/3
f 3/203/5 157/203/5 226/203/5 184/203/5
f 2/203/5 133/203/5 213/203/5 183/203/5
f 22/221/6 21/236/6 202/199/6 203/201/6
f 123/203/5 4/203/5 158/203/5 178/203/5
f 21/236/6 20/237/6 201/196/6 202/199/6
f 14/198/6 1/160/6 182/207/6 195/206/6
f 141/185/2 142/238/2 222/239/2 221/186/2
f 173/183/5 174/237/5 243/167/5 242/174/5
f 15/195/6 14/198/6 195/206/6 196/238/6
f 142/238/2 143/206/2 223/209/2 222/239/2
f 174/237/5 175/236/5 244/168/5 243/167/5
f 16/192/6 15/195/6 196/238/6 197/185/6
f 158/203/5 4/203/5 185/203/5 227/203/5
f 175/236/5 176/221/5 245/175/5 244/168/5
f 17/188/6 16/192/6 197/185/6 198/184/6
f 18/182/6 17/188/6 198/184/6 199/189/6
f 179/203/5 158/203/5 227/203/5 246/203/5
f 19/183/6 18/182/6 199/189/6 200/193/6
f 20/237/6 19/183/6 200/193/6 201/196/6
f 185/208/1 212/209/1 211/239/1 210/186/1 209/187/1 208/190/1 207/194/1 206/197/1 205/200/1 204/202/1 183/205/1 213/205/1 215/202/1 216/200/1 217/197/1 218/194/1 219/190/1 220/187/1 221/186/1 222/239/1 223/209/1 214/208/1 246/208/1 227/208/1
f 132/224/6 131/191/6 130/132/6 129/131/6 128/136/6 127/135/6 126/138/6 125/144/6 124/210/6 123/211/6 178/211/6 181/211/6 145/211/6 146/210/6 147/144/6 148/138/6 149/135/6 150/136/6 151/131/6 152/132/6 153/191/6 154/224/6 144/225/6 180/225/6 177/225/6 122/225/6
