# Blender v2.75 (sub 0) OBJ File: ''
# www.blender.org
mtllib 1_BUILDING.mtl
o Cube_Cube.001
v -8.106424 -1.000000 1.000000
v -8.106424 1.000000 1.000000
v -8.106424 -1.000000 -1.000000
v -8.106424 1.000000 -1.000000
v 8.106424 -1.000000 1.000000
v 8.106424 1.000000 1.000000
v 8.106424 -1.000000 -1.000000
v 8.106424 1.000000 -1.000000
v -8.106424 3.000000 1.000000
v -8.106424 3.000000 -1.000000
v 8.106424 3.000000 -1.000000
v 8.106424 3.000000 1.000000
v -8.106424 5.000000 1.000000
v -8.106424 5.000000 -1.000000
v 8.106424 5.000000 -1.000000
v 8.106424 5.000000 1.000000
v -8.106424 7.000000 1.000000
v -8.106424 7.000000 -1.000000
v 8.106424 7.000000 -1.000000
v 8.106424 7.000000 1.000000
v 0.000000 9.415606 0.000000
v -8.106424 -1.000000 1.000000
v -8.106424 1.000000 1.000000
v -8.106424 -1.000000 -1.000000
v -8.106424 1.000000 -1.000000
v 8.106424 -1.000000 1.000000
v 8.106424 1.000000 1.000000
v 8.106424 -1.000000 -1.000000
v 8.106424 1.000000 -1.000000
v -8.106424 3.000000 1.000000
v -8.106424 3.000000 -1.000000
v 8.106424 3.000000 -1.000000
v 8.106424 3.000000 1.000000
v -8.106424 5.000000 1.000000
v -8.106424 5.000000 -1.000000
v 8.106424 5.000000 -1.000000
v 8.106424 5.000000 1.000000
v -8.106424 7.000000 1.000000
v -8.106424 7.000000 -1.000000
v 8.106424 7.000000 -1.000000
v 8.106424 7.000000 1.000000
v 0.000000 9.415606 0.000000
v -8.106424 -1.000000 1.000000
v -8.106424 -1.000000 1.000000
v -8.106424 1.000000 1.000000
v -8.106424 1.000000 1.000000
v -8.106424 1.000000 1.000000
v -8.106424 1.000000 -1.000000
v -8.106424 1.000000 -1.000000
v -8.106424 1.000000 -1.000000
v -8.106424 -1.000000 -1.000000
v -8.106424 -1.000000 -1.000000
v 8.106424 1.000000 -1.000000
v 8.106424 1.000000 -1.000000
v 8.106424 1.000000 -1.000000
v 8.106424 -1.000000 -1.000000
v 8.106424 -1.000000 -1.000000
v 8.106424 1.000000 1.000000
v 8.106424 1.000000 1.000000
v 8.106424 1.000000 1.000000
v 8.106424 -1.000000 1.000000
v 8.106424 -1.000000 1.000000
v -8.106424 3.000000 1.000000
v -8.106424 3.000000 1.000000
v -8.106424 3.000000 1.000000
v -8.106424 3.000000 -1.000000
v -8.106424 3.000000 -1.000000
v -8.106424 3.000000 -1.000000
v 8.106424 3.000000 -1.000000
v 8.106424 3.000000 -1.000000
v 8.106424 3.000000 -1.000000
v 8.106424 3.000000 1.000000
v 8.106424 3.000000 1.000000
v 8.106424 3.000000 1.000000
v -8.106424 5.000000 1.000000
v -8.106424 5.000000 1.000000
v -8.106424 5.000000 1.000000
v -8.106424 5.000000 -1.000000
v -8.106424 5.000000 -1.000000
v -8.106424 5.000000 -1.000000
v 8.106424 5.000000 -1.000000
v 8.106424 5.000000 -1.000000
v 8.106424 5.000000 -1.000000
v 8.106424 5.000000 1.000000
v 8.106424 5.000000 1.000000
v 8.106424 5.000000 1.000000
v -8.106424 7.000000 1.000000
v -8.106424 7.000000 1.000000
v -8.106424 7.000000 1.000000
v -8.106424 7.000000 -1.000000
v -8.106424 7.000000 -1.000000
v -8.106424 7.000000 -1.000000
v 8.106424 7.000000 -1.000000
v 8.106424 7.000000 -1.000000
v 8.106424 7.000000 -1.000000
v 8.106424 7.000000 1.000000
v 8.106424 7.000000 1.000000
v 8.106424 7.000000 1.000000
v 0.000000 9.415606 0.000000
v 0.000000 9.415606 0.000000
v 0.000000 9.415606 0.000000
vt 0.142876 0.141491
vt 0.142876 0.000000
vt 0.285752 0.000000
vt 0.285752 0.141491
vt 0.428628 0.591791
vt 0.428628 0.733153
vt 0.285752 0.733153
vt 0.285752 0.591791
vt 0.142876 0.595367
vt 0.142876 0.736858
vt 0.000000 0.736858
vt 0.000000 0.595367
vt 0.571503 0.591791
vt 0.571503 0.733152
vt 0.000000 0.878349
vt 0.142876 0.878349
vt 0.285752 0.450430
vt 0.428628 0.450430
vt 0.428628 0.309068
vt 0.571504 0.309068
vt 0.571504 0.450430
vt 0.000000 0.453876
vt 0.142876 0.453876
vt 0.285752 0.282982
vt 0.142876 0.282982
vt 0.000000 0.312384
vt 0.000000 0.170893
vt 0.142876 0.170893
vt 0.142876 0.312384
vt 0.285752 0.309069
vt 0.285752 0.424473
vt 0.142876 0.424473
vt 0.285752 0.565965
vt 0.142876 0.565965
vt 0.428628 0.167707
vt 0.571504 0.167707
vt 0.285752 0.167707
vt 0.500066 0.000000
vt 0.357190 0.000000
vt 0.071438 0.000000
vt 0.214314 0.736858
vt 0.714379 0.799704
vt 0.714379 0.658213
vt 0.857255 0.658213
vt 0.857255 0.799704
vt 0.857255 0.516722
vt 1.000000 0.516722
vt 1.000000 0.658213
vt 0.703833 0.141491
vt 0.703833 0.000000
vt 0.846708 0.000000
vt 0.846708 0.141491
vt 0.989453 0.000000
vt 0.989453 0.141491
vt 0.857255 0.941195
vt 0.714379 0.941195
vt 0.714379 0.858509
vt 0.714379 1.000000
vt 0.571635 1.000000
vt 0.571635 0.858509
vt 0.857255 0.375231
vt 1.000000 0.375231
vt 0.428628 0.874644
vt 0.285752 0.874644
vt 0.714379 0.516722
vt 0.714379 0.375231
vt 0.846708 0.282982
vt 0.989453 0.282982
vt 0.703833 0.282982
vt 1.000000 0.799704
vt 1.000000 0.941195
vt 0.571504 0.874644
vt 0.285752 0.736858
vt 0.285752 0.878349
vt 0.571635 0.717018
vt 0.714379 0.717018
vt 0.703833 0.187616
vt 0.571504 0.134262
vt 0.703832 0.375231
vt 0.571504 0.321878
vt 0.571504 0.717018
vt 0.642941 0.546124
vt 0.714379 0.546124
vt 0.571504 0.546124
vt 0.642941 0.375231
vn 1.000000 0.000000 0.000000
vn 0.000000 0.000000 1.000000
vn -1.000000 0.000000 0.000000
vn 0.000000 0.000000 -1.000000
vn 0.000000 1.000000 0.000000
vn 0.000000 -0.382500 -0.924000
vn 0.000000 -0.382500 0.924000
vn -0.285600 -0.958400 0.000000
vn 0.285600 -0.958400 0.000000
vn 0.000000 -1.000000 0.000000
vn 0.000000 0.382500 0.924000
vn 0.000000 0.382500 -0.924000
vn 0.285600 0.958400 0.000000
vn -0.285600 0.958400 0.000000
usemtl None
s off
f 2/1/1 1/2/1 3/3/1 4/4/1
f 4/5/2 3/6/2 7/7/2 8/8/2
f 8/9/3 7/10/3 5/11/3 6/12/3
f 6/13/4 5/14/4 1/6/4 2/5/4
f 1/15/5 5/11/5 7/10/5 3/16/5
f 8/8/2 11/17/2 10/18/2 4/5/2
f 9/18/4 13/19/4 16/20/4 12/21/4
f 6/12/3 12/22/3 11/23/3 8/9/3
f 4/4/1 10/24/1 9/25/1 2/1/1
f 2/5/4 9/18/4 12/21/4 6/13/4
f 16/26/3 20/27/3 19/28/3 15/29/3
f 11/17/2 15/30/2 14/19/2 10/18/2
f 12/22/3 16/26/3 15/29/3 11/23/3
f 10/24/1 14/31/1 13/32/1 9/25/1
f 14/31/1 18/33/1 17/34/1 13/32/1
f 13/19/4 17/35/4 20/36/4 16/20/4
f 15/30/2 19/37/2 18/35/2 14/19/2
f 17/35/6 21/38/6 20/36/6
f 19/37/7 21/39/7 18/35/7
f 20/27/8 21/40/8 19/28/8
f 18/33/9 21/41/9 17/34/9
f 45/42/3 48/43/3 51/44/3 43/45/3
f 49/44/4 53/46/4 56/47/4 52/48/4
f 54/49/1 58/50/1 61/51/1 57/52/1
f 59/53/2 46/54/2 44/52/2 62/51/2
f 22/45/10 24/55/10 28/56/10 26/42/10
f 55/57/4 50/58/4 67/59/4 69/60/4
f 64/46/2 73/61/2 85/62/2 76/47/2
f 60/6/1 29/63/1 70/64/1 72/7/1
f 25/61/3 47/46/3 63/65/3 66/66/3
f 23/67/2 27/52/2 74/54/2 65/68/2
f 84/52/1 82/67/1 94/69/1 96/49/1
f 71/55/4 68/45/4 79/70/4 81/71/4
f 33/14/1 32/72/1 83/63/1 86/6/1
f 31/46/3 30/44/3 75/43/3 78/65/3
f 80/73/3 77/74/3 87/16/3 90/10/3
f 34/60/2 37/75/2 97/76/2 88/57/2
f 36/48/4 35/70/4 91/45/4 93/44/4
f 89/77/11 98/78/11 99/50/11
f 95/79/12 92/80/12 100/77/12
f 41/76/13 40/81/13 42/82/13
f 39/83/14 38/84/14 101/85/14
